<svg xmlns="http://www.w3.org/2000/svg" xmlns:xlink="http://www.w3.org/1999/xlink" width="500" zoomAndPan="magnify" viewBox="0 0 375 374.999991" height="500" preserveAspectRatio="xMidYMid meet" version="1.0"><defs><g/></defs><rect x="-37.5" width="450" fill="none" y="-37.499999" height="449.999989" fill-opacity="1"/><rect x="-37.5" width="450" fill="#ffffff" y="-37.499999" height="449.999989" fill-opacity="1"/><g fill="#000000" fill-opacity="1"><g transform="translate(107.359949, 217.124986)"><g><path d="M 29.125 0 L 21.765625 0 L 21.765625 -54.40625 L 1.125 -54.40625 L 1.125 -61.046875 L 49.84375 -61.046875 L 49.84375 -54.40625 L 29.125 -54.40625 Z M 29.125 0 "/></g></g></g><g fill="#000000" fill-opacity="1"><g transform="translate(158.315005, 217.124986)"><g><path d="M 37.4375 -27.125 L 49.203125 0 L 41.125 0 L 30.3125 -25.765625 L 13.6875 -25.765625 L 13.6875 0 L 6.3125 0 L 6.3125 -61.046875 L 29.046875 -61.046875 C 34.910156 -61.046875 39.601562 -59.601562 43.125 -56.71875 C 46.644531 -53.84375 48.40625 -49.46875 48.40625 -43.59375 C 48.40625 -39.488281 47.441406 -36.019531 45.515625 -33.1875 C 43.597656 -30.363281 40.90625 -28.34375 37.4375 -27.125 Z M 13.6875 -32.3125 L 28.078125 -32.3125 C 32.296875 -32.3125 35.523438 -33.257812 37.765625 -35.15625 C 40.003906 -37.050781 41.125 -39.785156 41.125 -43.359375 C 41.125 -46.878906 39.972656 -49.597656 37.671875 -51.515625 C 35.378906 -53.441406 32.179688 -54.40625 28.078125 -54.40625 L 13.6875 -54.40625 Z M 13.6875 -32.3125 "/></g></g></g><g fill="#000000" fill-opacity="1"><g transform="translate(211.109881, 217.124986)"><g><path d="M 28.40625 0.796875 C 24.40625 0.796875 20.617188 0.144531 17.046875 -1.15625 C 13.472656 -2.46875 10.472656 -4.550781 8.046875 -7.40625 C 5.617188 -10.257812 4.054688 -13.953125 3.359375 -18.484375 L 10.796875 -18.484375 C 11.441406 -15.222656 12.695312 -12.671875 14.5625 -10.828125 C 16.425781 -8.992188 18.625 -7.691406 21.15625 -6.921875 C 23.6875 -6.148438 26.207031 -5.765625 28.71875 -5.765625 C 32.988281 -5.765625 36.335938 -6.65625 38.765625 -8.4375 C 41.191406 -10.226562 42.40625 -12.9375 42.40625 -16.5625 C 42.40625 -18.75 41.9375 -20.535156 41 -21.921875 C 40.0625 -23.304688 38.789062 -24.425781 37.1875 -25.28125 C 35.59375 -26.132812 33.796875 -26.828125 31.796875 -27.359375 C 29.796875 -27.890625 27.703125 -28.394531 25.515625 -28.875 C 23.117188 -29.351562 20.757812 -29.910156 18.4375 -30.546875 C 16.113281 -31.191406 14.003906 -32.070312 12.109375 -33.1875 C 10.222656 -34.3125 8.707031 -35.820312 7.5625 -37.71875 C 6.414062 -39.613281 5.84375 -42.054688 5.84375 -45.046875 C 5.84375 -48.503906 6.679688 -51.488281 8.359375 -54 C 10.035156 -56.507812 12.367188 -58.441406 15.359375 -59.796875 C 18.347656 -61.160156 21.84375 -61.84375 25.84375 -61.84375 C 29.3125 -61.84375 32.601562 -61.238281 35.71875 -60.03125 C 38.84375 -58.832031 41.507812 -56.953125 43.71875 -54.390625 C 45.9375 -51.835938 47.363281 -48.453125 48 -44.234375 L 40.875 -44.234375 C 40.289062 -47.015625 39.222656 -49.203125 37.671875 -50.796875 C 36.128906 -52.398438 34.316406 -53.546875 32.234375 -54.234375 C 30.160156 -54.929688 28.003906 -55.28125 25.765625 -55.28125 C 21.648438 -55.28125 18.523438 -54.410156 16.390625 -52.671875 C 14.265625 -50.941406 13.203125 -48.613281 13.203125 -45.6875 C 13.203125 -43.226562 13.929688 -41.316406 15.390625 -39.953125 C 16.859375 -38.597656 18.78125 -37.5625 21.15625 -36.84375 C 23.53125 -36.125 26.078125 -35.46875 28.796875 -34.875 C 31.304688 -34.34375 33.800781 -33.726562 36.28125 -33.03125 C 38.757812 -32.34375 41.007812 -31.382812 43.03125 -30.15625 C 45.0625 -28.925781 46.691406 -27.269531 47.921875 -25.1875 C 49.148438 -23.113281 49.765625 -20.398438 49.765625 -17.046875 C 49.765625 -11.648438 47.945312 -7.328125 44.3125 -4.078125 C 40.6875 -0.828125 35.382812 0.796875 28.40625 0.796875 Z M 28.40625 0.796875 "/></g></g></g></svg>