<svg xmlns="http://www.w3.org/2000/svg" xmlns:xlink="http://www.w3.org/1999/xlink" width="500" zoomAndPan="magnify" viewBox="0 0 375 374.999991" height="500" preserveAspectRatio="xMidYMid meet" version="1.0"><defs><g/></defs><rect x="-37.5" width="450" fill="none" y="-37.499999" height="449.999989" fill-opacity="1"/><rect x="-37.5" width="450" fill="#042859" y="-37.499999" height="449.999989" fill-opacity="1"/><g fill="#ffffff" fill-opacity="1"><g transform="translate(96.48538, 181.001187)"><g><path d="M 19.59375 -24.328125 L 19.59375 -7.53125 C 19.59375 -5.6875 20.0625 -4.488281 21 -3.9375 C 21.9375 -3.394531 24.132812 -3.019531 27.59375 -2.8125 L 27.59375 0 L 3.828125 0 L 3.828125 -2.8125 C 7.054688 -3.070312 9.101562 -3.488281 9.96875 -4.0625 C 10.84375 -4.632812 11.28125 -5.789062 11.28125 -7.53125 L 11.28125 -47.515625 C 11.28125 -49.078125 10.882812 -50.238281 10.09375 -51 C 9.300781 -51.769531 7.109375 -52.3125 3.515625 -52.625 L 3.515625 -55.390625 L 28.84375 -55.390625 C 33.976562 -55.390625 38.15625 -54.132812 41.375 -51.625 C 44.601562 -49.113281 46.21875 -45.816406 46.21875 -41.734375 C 46.21875 -36.367188 44.269531 -32.125 40.375 -29 C 36.488281 -25.882812 31.609375 -24.328125 25.734375 -24.328125 Z M 19.59375 -52.203125 L 19.59375 -27.75 L 23.5 -27.75 C 27.875 -27.75 31.140625 -28.867188 33.296875 -31.109375 C 35.460938 -33.347656 36.546875 -36.253906 36.546875 -39.828125 C 36.546875 -48.078125 32.707031 -52.203125 25.03125 -52.203125 Z M 19.59375 -52.203125 "/></g></g></g><g fill="#ffffff" fill-opacity="1"><g transform="translate(146.440371, 181.001187)"><g><path d="M 56.765625 -32.28125 C 53.773438 -32.019531 51.609375 -31.46875 50.265625 -30.625 C 48.921875 -29.78125 47.78125 -28.332031 46.84375 -26.28125 C 43.332031 -18.695312 40.835938 -14.007812 39.359375 -12.21875 C 42.421875 -8.726562 44.925781 -6.351562 46.875 -5.09375 C 48.832031 -3.832031 51.945312 -3.070312 56.21875 -2.8125 L 56.21875 0 L 40.046875 0 L 34.3125 -6.640625 C 29.394531 -1.304688 24.269531 1.359375 18.9375 1.359375 C 14.351562 1.359375 10.546875 0.0390625 7.515625 -2.59375 C 4.484375 -5.238281 2.96875 -8.847656 2.96875 -13.421875 C 2.96875 -16.890625 3.890625 -19.914062 5.734375 -22.5 C 7.585938 -25.09375 10.6875 -27.769531 15.03125 -30.53125 C 11.882812 -34.695312 9.976562 -37.597656 9.3125 -39.234375 C 8.644531 -40.867188 8.3125 -42.664062 8.3125 -44.625 C 8.3125 -48.132812 9.628906 -51.019531 12.265625 -53.28125 C 14.910156 -55.550781 18.175781 -56.6875 22.0625 -56.6875 C 25.851562 -56.6875 28.828125 -55.625 30.984375 -53.5 C 33.148438 -51.382812 34.234375 -48.828125 34.234375 -45.828125 C 34.234375 -40.234375 30.578125 -35.507812 23.265625 -31.65625 C 25.785156 -28.28125 29.207031 -24.066406 33.53125 -19.015625 C 34.675781 -17.660156 35.890625 -16.203125 37.171875 -14.640625 C 40.859375 -20.421875 42.703125 -25.179688 42.703125 -28.921875 C 42.703125 -30.304688 40.441406 -31.425781 35.921875 -32.28125 L 35.921875 -35.09375 L 56.765625 -35.09375 Z M 21.59375 -33.96875 C 26.664062 -36.78125 29.203125 -40.460938 29.203125 -45.015625 C 29.203125 -50.503906 26.925781 -53.25 22.375 -53.25 C 20.363281 -53.25 18.769531 -52.476562 17.59375 -50.9375 C 16.425781 -49.40625 15.84375 -47.78125 15.84375 -46.0625 C 15.84375 -43.019531 17.757812 -38.988281 21.59375 -33.96875 Z M 32.203125 -8.859375 C 30.773438 -10.710938 28.070312 -14.070312 24.09375 -18.9375 C 20.550781 -23.257812 18.085938 -26.378906 16.703125 -28.296875 C 12.878906 -25.648438 10.96875 -21.679688 10.96875 -16.390625 C 10.96875 -12.804688 11.984375 -9.851562 14.015625 -7.53125 C 16.046875 -5.21875 18.726562 -4.0625 22.0625 -4.0625 C 26.351562 -4.0625 29.734375 -5.660156 32.203125 -8.859375 Z M 32.203125 -8.859375 "/></g></g></g><g fill="#ffffff" fill-opacity="1"><g transform="translate(204.397699, 181.001187)"><g><path d="M 46.0625 0 L 46.0625 -2.8125 C 48.75 -3.039062 50.519531 -3.234375 51.375 -3.390625 C 52.238281 -3.546875 53.003906 -4.023438 53.671875 -4.828125 C 54.347656 -5.640625 54.6875 -6.644531 54.6875 -7.84375 L 54.6875 -48.140625 L 54.03125 -48.140625 L 35.171875 -0.890625 L 33.265625 -0.890625 L 15.1875 -49.078125 L 14.71875 -49.078125 L 14.71875 -16 C 14.71875 -12.625 14.984375 -9.925781 15.515625 -7.90625 C 16.046875 -5.882812 17.40625 -4.546875 19.59375 -3.890625 C 21.78125 -3.242188 23.332031 -2.882812 24.25 -2.8125 L 24.25 0 L 1.828125 0 L 1.828125 -2.8125 C 5.835938 -3.144531 8.363281 -4.066406 9.40625 -5.578125 C 10.445312 -7.085938 10.96875 -10.421875 10.96875 -15.578125 L 10.96875 -43.875 C 10.96875 -49.394531 8.050781 -52.3125 2.21875 -52.625 L 2.21875 -55.390625 L 21.125 -55.390625 L 36.9375 -13.8125 L 50.515625 -48.609375 C 51.398438 -50.898438 52.015625 -53.160156 52.359375 -55.390625 L 70.421875 -55.390625 L 70.421875 -52.625 C 67.273438 -52.363281 65.238281 -51.90625 64.3125 -51.25 C 63.394531 -50.601562 62.9375 -49.4375 62.9375 -47.75 L 62.9375 -7.84375 C 62.9375 -6.175781 63.457031 -4.984375 64.5 -4.265625 C 65.539062 -3.554688 67.539062 -3.070312 70.5 -2.8125 L 70.5 0 Z M 46.0625 0 "/></g></g></g><g fill="#ffffff" fill-opacity="1"><g transform="translate(22.997103, 252.251182)"><g><path d="M 42.859375 0 C 37.160156 -8.976562 31.269531 -17.347656 25.1875 -25.109375 L 19.59375 -25.109375 L 19.59375 -7.53125 C 19.59375 -5.6875 20.03125 -4.507812 20.90625 -4 C 21.78125 -3.488281 23.894531 -3.09375 27.25 -2.8125 L 27.25 0 L 3.828125 0 L 3.828125 -2.8125 C 7.054688 -3.070312 9.101562 -3.488281 9.96875 -4.0625 C 10.84375 -4.632812 11.28125 -5.789062 11.28125 -7.53125 L 11.28125 -47.59375 C 11.28125 -49.28125 10.8125 -50.472656 9.875 -51.171875 C 8.9375 -51.878906 6.921875 -52.363281 3.828125 -52.625 L 3.828125 -55.390625 L 29.4375 -55.390625 C 34.769531 -55.390625 39.003906 -54.238281 42.140625 -51.9375 C 45.273438 -49.632812 46.84375 -46.390625 46.84375 -42.203125 C 46.84375 -34.859375 42.34375 -29.875 33.34375 -27.25 C 35.1875 -24.90625 38.84375 -20.015625 44.3125 -12.578125 C 47.144531 -8.691406 48.945312 -6.441406 49.71875 -5.828125 C 50.488281 -5.222656 51.375 -4.609375 52.375 -3.984375 C 53.375 -3.359375 55.1875 -2.96875 57.8125 -2.8125 L 57.8125 0 Z M 19.59375 -52.203125 L 19.59375 -28.453125 L 24.71875 -28.453125 C 28.457031 -28.453125 31.476562 -29.648438 33.78125 -32.046875 C 36.09375 -34.441406 37.25 -37.539062 37.25 -41.34375 C 37.25 -44.78125 36.265625 -47.445312 34.296875 -49.34375 C 32.328125 -51.25 29.640625 -52.203125 26.234375 -52.203125 Z M 19.59375 -52.203125 "/></g></g></g><g fill="#ffffff" fill-opacity="1"><g transform="translate(79.9301, 252.251182)"><g><path d="M 37.015625 -9.015625 C 33.421875 -2.304688 28.148438 1.046875 21.203125 1.046875 C 15.421875 1.046875 10.910156 -0.84375 7.671875 -4.625 C 4.429688 -8.414062 2.8125 -13.40625 2.8125 -19.59375 C 2.8125 -25.0625 4.457031 -29.757812 7.75 -33.6875 C 11.039062 -37.625 15.25 -39.59375 20.375 -39.59375 C 25.445312 -39.59375 29.332031 -38.113281 32.03125 -35.15625 C 34.726562 -32.195312 36.078125 -28.15625 36.078125 -23.03125 L 36.078125 -20.453125 L 10.546875 -20.453125 C 10.546875 -14.992188 11.65625 -10.765625 13.875 -7.765625 C 16.101562 -4.773438 19.285156 -3.28125 23.421875 -3.28125 C 25.710938 -3.28125 27.671875 -3.785156 29.296875 -4.796875 C 30.921875 -5.816406 32.59375 -7.785156 34.3125 -10.703125 Z M 28.375 -23.734375 C 28.375 -32.328125 25.679688 -36.625 20.296875 -36.625 C 17.585938 -36.625 15.320312 -35.476562 13.5 -33.1875 C 11.6875 -30.894531 10.703125 -27.742188 10.546875 -23.734375 Z M 28.375 -23.734375 "/></g></g></g><g fill="#ffffff" fill-opacity="1"><g transform="translate(119.336025, 252.251182)"><g><path d="M 6.953125 -2.375 L 6.171875 0.078125 L 3.28125 0.078125 L 2.890625 -13.28125 L 5.5 -13.28125 C 6.28125 -10.207031 7.789062 -7.554688 10.03125 -5.328125 C 12.269531 -3.097656 14.847656 -1.984375 17.765625 -1.984375 C 22.972656 -1.984375 25.578125 -4.171875 25.578125 -8.546875 C 25.578125 -10.347656 24.929688 -11.832031 23.640625 -13 C 22.347656 -14.164062 19.6875 -15.347656 15.65625 -16.546875 C 7.769531 -18.867188 3.828125 -22.785156 3.828125 -28.296875 C 3.828125 -31.523438 5.03125 -34.210938 7.4375 -36.359375 C 9.84375 -38.515625 12.957031 -39.59375 16.78125 -39.59375 C 19.957031 -39.59375 22.785156 -38.925781 25.265625 -37.59375 L 26.15625 -39.671875 L 28.921875 -39.671875 L 29.59375 -27.25 L 26.859375 -27.25 C 25.429688 -33.5 22.046875 -36.625 16.703125 -36.625 C 14.648438 -36.625 12.992188 -36.09375 11.734375 -35.03125 C 10.472656 -33.976562 9.84375 -32.671875 9.84375 -31.109375 C 9.84375 -29.109375 10.445312 -27.625 11.65625 -26.65625 C 12.863281 -25.695312 15.507812 -24.539062 19.59375 -23.1875 C 24.207031 -21.707031 27.359375 -20.019531 29.046875 -18.125 C 30.734375 -16.238281 31.578125 -13.90625 31.578125 -11.125 C 31.578125 -7.5625 30.222656 -4.640625 27.515625 -2.359375 C 24.816406 -0.0859375 21.367188 1.046875 17.171875 1.046875 C 13.378906 1.046875 9.972656 -0.09375 6.953125 -2.375 Z M 6.953125 -2.375 "/></g></g></g><g fill="#ffffff" fill-opacity="1"><g transform="translate(154.682221, 252.251182)"><g><path d="M 37.015625 -9.015625 C 33.421875 -2.304688 28.148438 1.046875 21.203125 1.046875 C 15.421875 1.046875 10.910156 -0.84375 7.671875 -4.625 C 4.429688 -8.414062 2.8125 -13.40625 2.8125 -19.59375 C 2.8125 -25.0625 4.457031 -29.757812 7.75 -33.6875 C 11.039062 -37.625 15.25 -39.59375 20.375 -39.59375 C 25.445312 -39.59375 29.332031 -38.113281 32.03125 -35.15625 C 34.726562 -32.195312 36.078125 -28.15625 36.078125 -23.03125 L 36.078125 -20.453125 L 10.546875 -20.453125 C 10.546875 -14.992188 11.65625 -10.765625 13.875 -7.765625 C 16.101562 -4.773438 19.285156 -3.28125 23.421875 -3.28125 C 25.710938 -3.28125 27.671875 -3.785156 29.296875 -4.796875 C 30.921875 -5.816406 32.59375 -7.785156 34.3125 -10.703125 Z M 28.375 -23.734375 C 28.375 -32.328125 25.679688 -36.625 20.296875 -36.625 C 17.585938 -36.625 15.320312 -35.476562 13.5 -33.1875 C 11.6875 -30.894531 10.703125 -27.742188 10.546875 -23.734375 Z M 28.375 -23.734375 "/></g></g></g><g fill="#ffffff" fill-opacity="1"><g transform="translate(194.08814, 252.251182)"><g><path d="M 39.28125 -0.703125 C 36.570312 0.285156 34.460938 0.78125 32.953125 0.78125 C 28.859375 0.78125 26.453125 -1.078125 25.734375 -4.796875 L 25.5 -4.796875 C 22.03125 -0.953125 17.878906 0.96875 13.046875 0.96875 C 10.148438 0.96875 7.769531 0.09375 5.90625 -1.65625 C 4.050781 -3.414062 3.125 -5.738281 3.125 -8.625 C 3.125 -11.851562 4.007812 -14.316406 5.78125 -16.015625 C 7.550781 -17.722656 10.59375 -19.296875 14.90625 -20.734375 C 21.082031 -22.765625 24.640625 -24.066406 25.578125 -24.640625 L 25.578125 -28.453125 C 25.578125 -30.691406 24.957031 -32.625 23.71875 -34.25 C 22.476562 -35.882812 20.648438 -36.703125 18.234375 -36.703125 C 15.734375 -36.703125 13.898438 -36.085938 12.734375 -34.859375 C 12.734375 -34.210938 12.847656 -33.445312 13.078125 -32.5625 C 13.304688 -31.675781 13.421875 -30.738281 13.421875 -29.75 C 13.421875 -28.726562 12.972656 -27.875 12.078125 -27.1875 C 11.179688 -26.5 10.082031 -26.15625 8.78125 -26.15625 C 6.28125 -26.15625 5.03125 -27.640625 5.03125 -30.609375 C 5.03125 -32.921875 6.488281 -34.992188 9.40625 -36.828125 C 12.320312 -38.671875 15.421875 -39.59375 18.703125 -39.59375 C 24.035156 -39.59375 27.742188 -38.539062 29.828125 -36.4375 C 31.910156 -34.34375 32.953125 -31.148438 32.953125 -26.859375 L 32.71875 -7.609375 C 32.71875 -6.203125 33.046875 -5.160156 33.703125 -4.484375 C 34.367188 -3.804688 34.96875 -3.421875 35.5 -3.328125 C 36.039062 -3.242188 37.300781 -3.203125 39.28125 -3.203125 Z M 25.65625 -21.359375 C 19.976562 -19.691406 16.109375 -17.972656 14.046875 -16.203125 C 11.992188 -14.429688 10.96875 -12.234375 10.96875 -9.609375 C 10.96875 -5.441406 12.957031 -3.359375 16.9375 -3.359375 C 20.007812 -3.359375 22.835938 -4.851562 25.421875 -7.84375 Z M 25.65625 -21.359375 "/></g></g></g><g fill="#ffffff" fill-opacity="1"><g transform="translate(235.172611, 252.251182)"><g><path d="M 24.25 -35.015625 C 20.8125 -34.835938 17.972656 -32.953125 15.734375 -29.359375 L 15.734375 -6.953125 C 15.734375 -5.546875 16.179688 -4.515625 17.078125 -3.859375 C 17.972656 -3.210938 19.984375 -2.785156 23.109375 -2.578125 L 23.109375 0 L 2.8125 0 L 2.8125 -2.578125 L 4.6875 -2.765625 C 7.207031 -2.953125 8.46875 -4.21875 8.46875 -6.5625 L 8.46875 -30.296875 C 8.46875 -33.679688 6.4375 -35.4375 2.375 -35.5625 L 2.375 -38.140625 L 15.1875 -38.921875 L 15.734375 -38.375 L 15.734375 -33.03125 L 15.921875 -33.03125 C 19.285156 -37.300781 22.878906 -39.4375 26.703125 -39.4375 C 28.335938 -39.4375 29.675781 -38.90625 30.71875 -37.84375 C 31.757812 -36.789062 32.28125 -35.34375 32.28125 -33.5 C 32.28125 -32.007812 31.921875 -30.796875 31.203125 -29.859375 C 30.492188 -28.921875 29.523438 -28.453125 28.296875 -28.453125 C 26.953125 -28.453125 25.867188 -28.796875 25.046875 -29.484375 C 24.222656 -30.179688 23.8125 -31.035156 23.8125 -32.046875 C 23.8125 -32.828125 23.957031 -33.816406 24.25 -35.015625 Z M 24.25 -35.015625 "/></g></g></g><g fill="#ffffff" fill-opacity="1"><g transform="translate(268.762208, 252.251182)"><g><path d="M 36.15625 -8.9375 C 34.507812 -5.96875 32.273438 -3.5625 29.453125 -1.71875 C 26.628906 0.125 23.679688 1.046875 20.609375 1.046875 C 15.046875 1.046875 10.6875 -0.804688 7.53125 -4.515625 C 4.382812 -8.222656 2.8125 -13.195312 2.8125 -19.4375 C 2.8125 -24.957031 4.535156 -29.695312 7.984375 -33.65625 C 11.429688 -37.613281 15.8125 -39.59375 21.125 -39.59375 C 25.050781 -39.59375 28.160156 -38.660156 30.453125 -36.796875 C 32.742188 -34.929688 33.890625 -32.503906 33.890625 -29.515625 C 33.890625 -26.210938 32.5625 -24.5625 29.90625 -24.5625 C 28.394531 -24.5625 27.203125 -24.9375 26.328125 -25.6875 C 25.460938 -26.4375 25.03125 -27.304688 25.03125 -28.296875 C 25.03125 -29.335938 25.1875 -30.507812 25.5 -31.8125 C 25.8125 -33.144531 26.003906 -34.082031 26.078125 -34.625 C 25.328125 -35.957031 23.625 -36.625 20.96875 -36.625 C 18.019531 -36.625 15.601562 -35.171875 13.71875 -32.265625 C 11.832031 -29.359375 10.890625 -25.1875 10.890625 -19.75 C 10.890625 -14.832031 11.972656 -10.859375 14.140625 -7.828125 C 16.316406 -4.796875 19.125 -3.28125 22.5625 -3.28125 C 27.007812 -3.28125 30.679688 -5.726562 33.578125 -10.625 Z M 36.15625 -8.9375 "/></g></g></g><g fill="#ffffff" fill-opacity="1"><g transform="translate(305.865027, 252.251182)"><g><path d="M 25.734375 0 L 25.734375 -2.578125 C 26.453125 -2.648438 27.125 -2.710938 27.75 -2.765625 C 30.351562 -2.921875 31.65625 -4.1875 31.65625 -6.5625 L 31.65625 -26.390625 C 31.65625 -28.960938 31.035156 -31.03125 29.796875 -32.59375 C 28.566406 -34.15625 26.976562 -34.9375 25.03125 -34.9375 C 20.570312 -34.9375 17.238281 -32.984375 15.03125 -29.078125 L 15.03125 -6.953125 C 15.03125 -4.316406 17.007812 -2.859375 20.96875 -2.578125 L 20.96875 0 L 2.0625 0 L 2.0625 -2.578125 L 3.984375 -2.765625 C 6.503906 -2.953125 7.765625 -4.21875 7.765625 -6.5625 L 7.765625 -51.421875 C 7.765625 -52.429688 7.507812 -53.421875 7 -54.390625 C 6.5 -55.367188 5.859375 -56 5.078125 -56.28125 C 4.296875 -56.570312 2.679688 -56.8125 0.234375 -57 L 0.234375 -59.578125 L 14.484375 -60.4375 L 15.03125 -59.890625 L 15.03125 -33.03125 L 15.1875 -33.03125 C 18.019531 -35.894531 20.375 -37.703125 22.25 -38.453125 C 24.125 -39.210938 26.140625 -39.59375 28.296875 -39.59375 C 35.429688 -39.59375 39 -35.347656 39 -26.859375 L 39 -6.875 C 39 -4.289062 40.875 -2.859375 44.625 -2.578125 L 44.625 0 Z M 25.734375 0 "/></g></g></g><path stroke-linecap="butt" transform="matrix(0.75, 0, 0, 0.75, 37.500002, 288.110196)" fill="none" stroke-linejoin="miter" d="M -0.00000271667 2.498905 L 400.000024 2.498905 " stroke="#ffffff" stroke-width="5" stroke-opacity="1" stroke-miterlimit="4"/></svg>